<?xml version="1.0" standalone="no"?>
<!DOCTYPE svg PUBLIC "-//W3C//DTD SVG 20010904//EN"
 "http://www.w3.org/TR/2001/REC-SVG-20010904/DTD/svg10.dtd">
<svg version="1.0" xmlns="http://www.w3.org/2000/svg"
 width="460.000000pt" height="460.000000pt" viewBox="0 0 460.000000 460.000000"
 preserveAspectRatio="xMidYMid meet">
<metadata>
Created by potrace 1.14, written by Peter Selinger 2001-2017
</metadata>
<g transform="translate(0.000000,460.000000) scale(0.100000,-0.100000)"
fill="#000000" stroke="none">
<path d="M0 3269 l0 -1330 38 6 c98 15 236 86 439 224 62 42 134 88 159 102
81 46 257 73 479 74 94 0 241 -12 255 -20 27 -17 222 -58 297 -62 l93 -6 10
28 c15 38 26 185 31 400 1 63 -9 94 -77 228 -19 37 -34 74 -34 82 0 8 -4 15
-9 15 -9 0 -31 48 -58 130 -8 25 -18 50 -23 55 -6 9 -29 90 -66 235 -40 158
-48 192 -64 269 -16 81 -16 87 1 145 10 34 23 70 28 81 5 11 26 65 47 120 20
55 47 120 59 145 19 37 22 60 21 133 -1 48 0 91 4 96 3 4 55 30 115 56 137 61
152 70 158 100 l4 25 -953 0 -954 0 0 -1331z m846 -224 c38 -7 52 -32 58 -104
3 -44 9 -58 32 -77 47 -38 138 -45 149 -11 2 7 11 38 20 70 19 68 3 68 178 0
65 -25 121 -53 126 -62 8 -16 8 -35 -3 -103 -22 -141 -131 -210 -334 -212 -91
-1 -115 3 -161 22 -85 37 -198 128 -255 206 -45 61 -85 248 -57 265 6 4 37 9
69 10 31 1 58 4 60 5 4 4 74 -1 118 -9z"/>
<path d="M2150 4570 c17 -60 70 -120 105 -120 35 0 45 20 45 87 l0 63 -79 0
-80 0 9 -30z"/>
<path d="M2991 4584 c16 -20 34 -51 49 -84 6 -13 15 -27 19 -30 7 -5 91 -148
91 -156 0 -10 73 -116 94 -136 13 -13 67 -74 121 -137 97 -113 97 -114 91
-157 -5 -42 -31 -111 -81 -219 -12 -27 -44 -104 -69 -170 -26 -66 -53 -134
-61 -152 -13 -29 -41 -128 -51 -177 -2 -10 -8 -33 -13 -50 -14 -44 -50 -211
-57 -265 -3 -26 -7 -57 -10 -71 -7 -39 -5 -244 2 -300 4 -27 12 -54 18 -59 26
-20 133 -45 286 -68 14 -2 77 -4 140 -4 94 -1 135 4 220 26 58 14 121 28 140
31 19 2 44 8 55 11 40 13 51 15 123 18 40 1 90 -1 110 -6 48 -10 85 -16 152
-24 30 -3 71 -10 90 -15 19 -5 61 -12 93 -15 l57 -6 0 1115 0 1116 -811 0
c-744 0 -810 -1 -798 -16z m1077 -1302 c7 -5 14 -18 16 -29 3 -11 9 -38 15
-59 6 -22 11 -54 11 -73 0 -42 -28 -137 -50 -171 -9 -14 -23 -40 -30 -59 -15
-36 -125 -181 -138 -181 -4 0 -18 -10 -32 -23 -83 -76 -254 -94 -408 -41 -100
33 -128 65 -139 154 -9 78 23 132 148 245 42 39 94 75 106 75 5 0 20 -21 33
-47 34 -69 68 -116 93 -130 51 -27 74 55 43 157 l-13 44 116 58 c109 54 183
86 206 87 6 0 16 -3 23 -7z"/>
<path d="M2053 4139 c-51 -9 -80 -24 -92 -47 -12 -23 -12 -345 0 -407 19 -96
18 -157 -5 -200 -12 -22 -24 -41 -28 -43 -4 -2 -17 -20 -30 -40 -28 -45 -48
-69 -115 -137 -60 -60 -62 -71 -37 -187 9 -40 18 -86 21 -103 4 -27 25 -81 54
-140 5 -11 12 -31 15 -45 39 -188 42 -299 9 -380 -11 -28 -18 -73 -19 -121 -1
-77 8 -102 56 -153 10 -11 18 -23 18 -27 0 -14 90 -94 137 -121 58 -33 206
-80 241 -76 22 2 29 12 44 58 28 83 60 142 83 150 11 4 34 14 50 21 17 7 34
13 38 13 4 1 19 12 33 25 23 22 25 30 20 87 -6 63 -41 174 -56 174 -8 0 -36
66 -67 160 -25 77 -26 303 -1 340 16 24 43 120 54 190 3 19 12 66 19 104 16
83 13 176 -7 231 -21 57 -38 111 -43 136 -3 12 -12 45 -22 73 -9 28 -18 58
-19 66 -5 41 -38 160 -55 202 -10 26 -19 54 -19 63 0 8 -12 34 -26 56 -41 66
-142 97 -251 78z"/>
<path d="M2032 1369 c-30 -12 -48 -30 -57 -58 -6 -20 5 -35 76 -104 76 -73
191 -169 249 -207 18 -12 107 -111 162 -181 30 -37 58 -100 58 -130 0 -63 -96
-119 -230 -134 -30 -4 -77 -11 -105 -15 -95 -18 -110 -20 -190 -26 -44 -3 -91
-7 -105 -10 -14 -2 -73 -7 -131 -11 -129 -7 -173 5 -286 81 -73 48 -90 61
-146 110 -31 26 -97 70 -132 88 -16 8 -48 25 -70 36 -161 86 -255 111 -388
104 -40 -3 -87 -52 -87 -91 0 -34 22 -60 95 -111 28 -19 55 -39 62 -45 26 -21
40 -31 95 -68 31 -20 60 -37 65 -37 4 0 29 -11 55 -25 27 -14 49 -25 50 -25 6
2 45 -14 131 -51 48 -22 90 -39 93 -39 3 0 53 -21 112 -46 59 -25 116 -49 127
-53 11 -5 36 -15 55 -23 71 -31 285 -113 320 -123 14 -4 45 -17 70 -28 25 -11
50 -22 57 -23 7 -1 27 -9 44 -18 18 -9 35 -16 39 -16 4 0 25 -8 46 -17 22 -9
45 -18 52 -19 8 -1 28 -9 45 -18 47 -22 162 -39 221 -33 32 3 103 28 188 66
75 34 140 61 145 61 19 0 345 107 377 124 41 21 124 91 140 118 29 48 17 69
-47 83 -61 12 -76 14 -156 19 -46 3 -117 15 -159 27 -108 30 -253 91 -283 120
-37 34 -69 97 -61 119 4 10 50 63 103 117 52 54 100 106 105 115 16 28 96 120
176 203 87 91 99 114 85 162 -8 26 -16 33 -35 33 -40 0 -202 -59 -222 -81 -3
-3 -27 -21 -55 -40 -27 -18 -56 -39 -63 -46 -21 -20 -79 -26 -166 -18 -44 4
-94 8 -111 10 -113 8 -177 36 -291 126 -67 53 -89 61 -122 48z"/>
</g>
</svg>
